<?xml version="1.0" standalone="no"?>
<!DOCTYPE svg PUBLIC "-//W3C//DTD SVG 20010904//EN"
 "http://www.w3.org/TR/2001/REC-SVG-20010904/DTD/svg10.dtd">
<svg version="1.0" xmlns="http://www.w3.org/2000/svg"
 width="200.000000pt" height="200.000000pt" viewBox="0 0 200.000000 200.000000"
 preserveAspectRatio="xMidYMid meet">

<g transform="translate(0.000000,200.000000) scale(0.100000,-0.100000)"
fill="#000000" stroke="none">
<path d="M785 1610 c-41 -40 -72 -77 -69 -81 7 -13 144 -11 144 1 0 6 -26 10
-57 10 l-58 0 57 57 57 57 143 -3 143 -2 41 -41 c23 -22 44 -36 47 -31 4 6
-14 29 -39 54 l-45 44 -144 3 -145 4 -75 -72z"/>
<path d="M866 1598 c25 -82 127 -348 134 -348 7 0 130 344 130 363 0 4 -4 7
-9 7 -5 0 -33 -70 -61 -155 -28 -85 -55 -157 -58 -159 -4 -2 -34 67 -66 155
-32 87 -62 159 -68 159 -5 0 -6 -10 -2 -22z"/>
<path d="M956 1567 c-15 -19 -26 -37 -26 -40 0 -4 29 -7 65 -7 74 0 82 10 37
53 -36 35 -46 34 -76 -6z m59 -7 c18 -20 17 -20 -20 -20 -37 0 -38 0 -20 20
10 11 19 20 20 20 1 0 10 -9 20 -20z"/>
<path d="M1135 1530 c-4 -6 17 -10 60 -10 37 0 65 -4 63 -8 -7 -18 -252 -352
-257 -352 -4 0 -52 63 -106 140 -90 126 -128 168 -111 124 16 -41 201 -284
217 -284 17 0 284 359 284 383 0 15 -140 23 -150 7z"/>
<path d="M750 1470 c0 -5 5 -10 10 -10 6 0 10 5 10 10 0 6 -4 10 -10 10 -5 0
-10 -4 -10 -10z"/>
<path d="M1180 1230 c0 -6 33 -10 80 -10 47 0 80 4 80 10 0 6 -33 10 -80 10
-47 0 -80 -4 -80 -10z"/>
<path d="M660 1220 c0 -6 33 -10 80 -10 47 0 80 4 80 10 0 6 -33 10 -80 10
-47 0 -80 -4 -80 -10z"/>
<path d="M830 1095 c-29 -30 -51 -58 -47 -62 8 -7 117 95 117 109 0 18 -18 5
-70 -47z"/>
<path d="M1110 1142 c0 -10 103 -112 113 -112 19 0 2 30 -41 73 -44 43 -72 59
-72 39z"/>
<path d="M180 957 c-24 -12 -25 -16 -28 -135 -2 -79 1 -122 8 -122 6 0 10 44
10 120 0 119 0 120 25 126 14 3 36 3 50 0 23 -6 25 -11 25 -60 0 -57 -7 -66
-56 -66 -13 0 -24 -5 -24 -11 0 -13 68 -3 88 13 17 14 16 112 -1 127 -23 18
-70 22 -97 8z"/>
<path d="M1145 963 c-38 -9 -45 -32 -45 -144 0 -61 4 -110 10 -114 6 -4 10 33
10 104 0 121 8 141 59 141 37 0 51 -17 51 -60 0 -45 -15 -60 -57 -60 -18 0
-33 -4 -33 -10 0 -5 16 -10 35 -10 32 0 35 -3 45 -42 16 -62 18 -68 29 -68 8
0 -6 69 -23 111 -5 10 -1 19 8 22 20 8 22 99 4 115 -17 13 -67 21 -93 15z"/>
<path d="M760 935 c0 -16 -6 -25 -15 -25 -8 0 -15 -4 -15 -10 0 -5 7 -10 15
-10 12 0 15 -15 15 -79 0 -80 6 -111 20 -111 4 0 5 43 2 95 l-5 95 27 0 c32 0
35 17 4 22 -15 2 -24 11 -26 26 -5 30 -22 28 -22 -3z"/>
<path d="M1810 939 c0 -12 -8 -23 -20 -26 -11 -3 -20 -9 -20 -14 0 -5 9 -9 20
-9 19 0 20 -7 20 -89 0 -50 5 -93 10 -96 6 -4 10 28 10 89 0 89 1 96 20 96 11
0 20 5 20 10 0 6 -9 10 -20 10 -15 0 -20 7 -20 25 0 14 -4 25 -10 25 -5 0 -10
-9 -10 -21z"/>
<path d="M602 904 c-20 -14 -22 -23 -22 -110 0 -56 4 -94 10 -94 6 0 10 36 10
89 0 65 4 92 15 101 21 17 50 8 53 -18 2 -12 10 -22 18 -22 19 0 9 39 -14 58
-21 16 -43 15 -70 -4z"/>
<path d="M1360 908 c-22 -12 -25 -21 -28 -83 -4 -98 1 -113 43 -121 46 -8 82
2 96 27 15 29 2 37 -17 10 -13 -18 -24 -21 -57 -19 -41 3 -42 4 -42 38 0 35 0
35 54 42 55 6 71 18 71 54 0 49 -68 79 -120 52z m84 -24 c34 -33 15 -58 -51
-68 l-43 -6 0 33 c0 18 5 38 12 45 17 17 64 15 82 -4z"/>
<path d="M1590 907 c-24 -12 -25 -17 -28 -110 -2 -62 1 -97 8 -97 6 0 10 34
10 88 0 95 8 112 50 112 44 0 49 -11 52 -103 4 -103 22 -121 26 -27 5 99 -3
126 -40 139 -39 14 -47 14 -78 -2z"/>
<path d="M370 901 c0 -6 21 -11 48 -13 45 -3 47 -4 50 -35 3 -32 2 -32 -48
-39 -42 -5 -53 -11 -61 -30 -13 -37 4 -71 40 -76 17 -2 36 -1 43 3 7 4 -2 9
-23 11 -30 3 -34 7 -37 34 -3 26 1 33 20 38 50 13 68 8 68 -21 0 -36 10 -73
20 -73 4 0 5 42 3 93 -4 68 -9 95 -21 105 -18 14 -102 17 -102 3z"/>
<path d="M873 894 c3 -11 11 -53 17 -94 14 -85 22 -100 56 -100 19 0 24 -5 24
-24 0 -28 -15 -42 -50 -49 -18 -3 -15 -5 13 -6 47 -1 50 6 77 158 23 132 23
131 11 131 -5 0 -14 -30 -20 -67 -21 -128 -20 -124 -49 -121 -26 3 -28 8 -42
92 -9 54 -21 91 -29 94 -9 3 -11 -2 -8 -14z"/>
</g>
</svg>
